<svg width="57" height="57" viewBox="0 0 57 57" fill="none" xmlns="http://www.w3.org/2000/svg">
<path d="M6.62585 0.180584C3.99789 0.737309 1.61492 2.71924 0.623867 5.17995C-0.0331216 6.78332 0.000284645 5.6476 0.000284645 28.4955C0.000284645 51.3991 -0.0331216 50.2411 0.635003 51.8222C1.47016 53.8041 3.19615 55.53 5.18938 56.3651C6.75947 57.0331 5.61253 56.9997 28.5069 56.9997C51.1452 56.9997 50.1875 57.022 51.7131 56.4319C53.6284 55.6747 55.4212 53.9489 56.3009 52.0004C57.0024 50.4415 56.9467 52.2787 56.9913 28.8852C57.0135 9.75622 57.0024 7.52933 56.8465 6.73878C56.1784 3.43185 53.6061 0.848652 50.31 0.169449C49.5417 0.0135689 47.2367 -0.00870132 28.429 0.00243378C10.2003 0.0135689 7.30511 0.0358353 6.62585 0.180584ZM31.2017 10.2461C32.1593 10.4577 32.9611 10.9031 33.6849 11.6268C34.7761 12.718 35.1882 13.8314 35.1882 15.7466V16.8043H33.5178H31.8475V15.8022C31.8475 14.5552 31.6248 14.0318 30.9567 13.6867C30.567 13.4863 30.2997 13.464 28.4846 13.464C26.7141 13.464 26.3912 13.4863 26.0571 13.6755C25.2888 14.0764 24.9547 15.1453 25.3667 15.8802C25.467 16.0695 27.7608 18.5747 30.4667 21.4474C33.1615 24.309 35.5222 26.8365 35.7115 27.048C36.8585 28.3953 37.8161 30.4329 38.2615 32.5039C38.5622 33.8846 38.5399 36.6459 38.2281 38.0266C37.2259 42.3134 34.4532 45.4978 30.7674 46.5556C29.5314 46.9119 27.4825 46.9119 26.2464 46.5556C22.3268 45.431 19.3313 41.7567 18.6521 37.2138C18.1621 33.9737 18.8525 31.2346 20.7901 28.6403C22.2154 26.7363 24.2087 25.389 27.0927 24.3758C27.6829 24.1642 28.1729 23.9638 28.1729 23.9304C28.1729 23.897 26.9702 22.5942 25.5115 21.0354C24.0416 19.4766 22.6942 17.94 22.5049 17.6394C20.868 14.9226 22.4159 11.1369 25.5004 10.3018C26.2687 10.1014 30.322 10.0569 31.2017 10.2461Z" fill="black"/>
<path d="M28.7066 27.3663C27.7292 27.7314 26.5907 28.2147 26.1719 28.4403C24.1742 29.4821 22.6384 31.469 22.198 33.5633C21.9832 34.5622 22.0584 36.1517 22.3591 37.3654C23.3472 41.2103 26.6122 43.6483 29.7161 42.8428C30.8331 42.5528 31.499 42.1555 32.4763 41.1781C33.2496 40.4156 33.4859 40.0934 33.9048 39.2449C34.6781 37.6553 34.8607 36.8176 34.8607 34.8951C34.8607 33.4559 34.8284 33.1767 34.5707 32.3175C34.1948 31.0824 33.5611 29.8687 32.8737 29.074C32.1327 28.2147 30.629 26.6789 30.5431 26.6896C30.5109 26.6896 29.6839 27.0011 28.7066 27.3663Z" fill="black"/>
</svg>
