<svg width="38" height="38" viewBox="0 0 38 38" fill="none" xmlns="http://www.w3.org/2000/svg">
<path d="M33.1835 24.2647C33.5065 23.4952 32.5834 22.8397 31.8092 23.1817C30.2616 23.861 28.5894 24.2104 26.8993 24.2077C20.273 24.2077 14.9023 18.9447 14.9023 12.4514C14.8999 10.2591 15.5228 8.11146 16.6978 6.26059C17.1475 5.55126 16.6076 4.56959 15.7843 4.77859C9.43667 6.39834 4.75 12.054 4.75 18.7816C4.75 26.7727 11.3604 33.2501 19.5162 33.2501C25.6912 33.2501 30.9795 29.5372 33.1835 24.2647Z" fill="#242424"/>
<path d="M24.7173 4.91324C23.8781 4.35274 22.8775 5.35341 23.4364 6.19258L24.4339 7.68883C24.8385 8.2955 25.0545 9.00842 25.0545 9.73766C25.0545 10.4669 24.8385 11.1798 24.4339 11.7865L23.4364 13.2827C22.8775 14.1219 23.8797 15.1226 24.7189 14.5621L26.2136 13.5646C26.8202 13.1599 27.5331 12.944 28.2624 12.944C28.9916 12.944 29.7045 13.1599 30.3112 13.5646L31.8075 14.5621C32.6466 15.1226 33.6473 14.1219 33.0868 13.2827L32.0893 11.7865C31.6847 11.1798 31.4687 10.4669 31.4687 9.73766C31.4687 9.00842 31.6847 8.2955 32.0893 7.68883L33.0868 6.19258C33.6473 5.35341 32.6466 4.35274 31.8059 4.91324L30.3112 5.91074C29.7045 6.31539 28.9916 6.53133 28.2624 6.53133C27.5331 6.53133 26.8202 6.31539 26.2136 5.91074L24.7173 4.91324Z" fill="#242424"/>
</svg>
