<svg width="60" height="63" viewBox="0 0 60 63" fill="none" xmlns="http://www.w3.org/2000/svg">
<path fill-rule="evenodd" clip-rule="evenodd" d="M0 63V16.2537L15.4797 0H60V46.7983L44.5698 63H0Z" fill="white"/>
<path d="M23.3054 19.1953H23.3045C20.1104 19.1953 17.5951 21.1429 16.403 24.538C13.6899 32.2703 23.5407 39.0472 27.7468 41.9403C28.4241 42.4059 29.1915 42.934 29.3424 43.0989L29.9302 43.8047L30.5851 43.1688C30.6938 43.0684 31.1968 42.7302 31.6829 42.4034C35.7165 39.6925 46.4293 32.4903 43.5901 24.5282C42.3873 21.1532 39.8677 19.2175 36.6798 19.2175C33.9873 19.2175 31.3238 20.5774 29.9705 22.4433C28.5727 20.5488 25.943 19.1953 23.3054 19.1953Z" fill="#F14545"/>
</svg>
