<svg width="42" height="42" viewBox="0 0 42 42" fill="none" xmlns="http://www.w3.org/2000/svg">
<path d="M17.7971 33.2502C18.0585 33.2511 18.3168 33.1934 18.5531 33.0814C18.7893 32.9693 18.9974 32.8058 19.1621 32.6027L27.6146 22.1027C27.872 21.7896 28.0127 21.3968 28.0127 20.9915C28.0127 20.5861 27.872 20.1934 27.6146 19.8802L18.8646 9.38024C18.5675 9.02286 18.1407 8.79812 17.678 8.75545C17.2152 8.71279 16.7545 8.8557 16.3971 9.15274C16.0397 9.44978 15.815 9.87663 15.7723 10.3394C15.7296 10.8021 15.8725 11.2629 16.1696 11.6202L23.9921 21.0002L16.4321 30.3802C16.2181 30.6371 16.0822 30.9499 16.0404 31.2816C15.9986 31.6133 16.0527 31.9501 16.1963 32.252C16.3399 32.5539 16.567 32.8084 16.8507 32.9853C17.1343 33.1622 17.4628 33.2541 17.7971 33.2502Z" fill="#3D3D3D"/>
</svg>
